<svg width="12" height="6" viewBox="0 0 12 6" fill="none" xmlns="http://www.w3.org/2000/svg">
<path d="M11.1644 1.74741C11.5771 1.38049 11.6143 0.748419 11.2474 0.335636C10.8805 -0.0771466 10.2484 -0.114327 9.83564 0.252591L11.1644 1.74741ZM6 5L5.33564 5.74741C5.71452 6.0842 6.28548 6.0842 6.66436 5.74741L6 5ZM2.16436 0.25259C1.75158 -0.114328 1.11951 -0.0771471 0.752591 0.335636C0.385673 0.748418 0.422853 1.38049 0.835636 1.74741L2.16436 0.25259ZM9.83564 0.252591L5.33564 4.25259L6.66436 5.74741L11.1644 1.74741L9.83564 0.252591ZM6.66436 4.25259L2.16436 0.25259L0.835636 1.74741L5.33564 5.74741L6.66436 4.25259Z" fill="#060213"/>
</svg>
